<svg width="414" height="561" viewBox="0 0 414 561" fill="none" xmlns="http://www.w3.org/2000/svg">
<path d="M0 93.2604C2.03315 85.4975 16.1052 74.1203 24.8898 79.3112C37.4734 86.747 42.9763 103.424 45.5401 116.783C48.5859 132.653 49.6488 150.225 62.0876 162.186C73.1294 172.803 87.7275 169.275 101.132 167.041C117.962 164.236 134.969 159.711 149.475 170.87C162.627 180.987 175.916 202.56 178.194 219.077C181.372 242.117 178.194 266.234 183.665 288.96C186.879 302.314 198.518 311.595 210.674 317.268C222.724 322.891 239.307 319.416 252.043 318.567C267.386 317.545 283.774 322.268 297.173 329.576C322.034 343.137 317.523 378.667 334.781 398.912C349.473 416.147 370.148 423.118 391.945 423.118C395.744 423.118 400.567 422.352 404.322 423.186C408.193 424.047 412.322 431.525 412.322 424.349" stroke="#CE0000" stroke-width="3" stroke-linecap="round" stroke-linejoin="round"/>
<path d="M5 19.1586C7.32249 10.9387 23.3971 -1.10803 33.4318 4.38837C47.8063 12.2618 54.0923 29.9207 57.0209 44.0652C60.5002 60.8698 61.7144 79.4765 75.9234 92.1408C88.5365 103.383 105.212 99.647 120.524 97.2815C139.75 94.3112 159.177 89.5207 175.747 101.336C190.771 112.048 205.951 134.891 208.553 152.38C212.183 176.777 208.553 202.313 214.802 226.376C218.474 240.516 231.769 250.344 245.655 256.351C259.42 262.305 278.363 258.626 292.911 257.727C310.438 256.643 329.158 261.645 344.464 269.383C372.863 283.742 367.71 321.364 387.424 342.8C404.207 361.05 427.824 368.431 452.723 368.431C457.063 368.431 462.572 367.62 466.861 368.503C471.284 369.414 476 377.333 476 369.734" stroke="#FEF8E3" stroke-width="4" stroke-linecap="round" stroke-linejoin="round"/>
<path d="M0 224.26C2.03315 216.497 16.1052 205.12 24.8898 210.311C37.4734 217.747 42.9763 234.424 45.5401 247.783C48.5859 263.653 49.6488 281.225 62.0876 293.186C73.1294 303.803 87.7275 300.275 101.132 298.041C117.962 295.236 134.969 290.711 149.475 301.87C162.627 311.987 175.916 333.56 178.194 350.077C181.372 373.117 178.194 397.234 183.665 419.96C186.879 433.314 198.518 442.595 210.674 448.268C222.724 453.891 239.307 450.416 252.043 449.567C267.386 448.545 283.774 453.268 297.173 460.576C322.034 474.137 317.523 509.667 334.781 529.912C349.473 547.147 370.148 554.118 391.945 554.118C395.744 554.118 400.567 553.352 404.322 554.186C408.193 555.047 412.322 562.525 412.322 555.349" stroke="#1C5C9D" stroke-width="4" stroke-linecap="round" stroke-linejoin="round"/>
</svg>
