<svg width="414" height="563" viewBox="0 0 414 563" fill="none" xmlns="http://www.w3.org/2000/svg">
<path d="M0 94.2604C2.03315 86.4975 16.1052 75.1203 24.8898 80.3112C37.4734 87.747 42.9763 104.424 45.5401 117.783C48.5859 133.653 49.6488 151.225 62.0876 163.186C73.1294 173.803 87.7275 170.275 101.132 168.041C117.962 165.236 134.969 160.711 149.475 171.87C162.627 181.987 175.916 203.56 178.194 220.077C181.372 243.117 178.194 267.234 183.665 289.96C186.879 303.314 198.518 312.595 210.674 318.268C222.724 323.891 239.307 320.416 252.043 319.567C267.386 318.545 283.774 323.268 297.173 330.576C322.034 344.137 317.523 379.667 334.781 399.912C349.473 417.147 370.148 424.118 391.945 424.118C395.744 424.118 400.567 423.352 404.322 424.186C408.193 425.047 412.322 432.525 412.322 425.349" stroke="#FFCF1F" stroke-width="4" stroke-linecap="round" stroke-linejoin="round"/>
<path d="M5 20.1586C7.32249 11.9387 23.3971 -0.108034 33.4318 5.38837C47.8063 13.2618 54.0923 30.9207 57.0209 45.0652C60.5002 61.8698 61.7144 80.4765 75.9234 93.1408C88.5365 104.383 105.212 100.647 120.524 98.2815C139.75 95.3112 159.177 90.5207 175.747 102.336C190.771 113.048 205.951 135.891 208.553 153.38C212.183 177.777 208.553 203.313 214.802 227.376C218.474 241.516 231.769 251.344 245.655 257.351C259.42 263.305 278.363 259.626 292.911 258.727C310.438 257.643 329.158 262.645 344.464 270.383C372.863 284.742 367.71 322.364 387.424 343.8C404.207 362.05 427.824 369.431 452.723 369.431C457.063 369.431 462.572 368.62 466.861 369.503C471.284 370.414 476 378.333 476 370.734" stroke="#FEF8E3" stroke-width="6" stroke-linecap="round" stroke-linejoin="round"/>
<path d="M0 225.26C2.03315 217.497 16.1052 206.12 24.8898 211.311C37.4734 218.747 42.9763 235.424 45.5401 248.783C48.5859 264.653 49.6488 282.225 62.0876 294.186C73.1294 304.803 87.7275 301.275 101.132 299.041C117.962 296.236 134.969 291.711 149.475 302.87C162.627 312.987 175.916 334.56 178.194 351.077C181.372 374.117 178.194 398.234 183.665 420.96C186.879 434.314 198.518 443.595 210.674 449.268C222.724 454.891 239.307 451.416 252.043 450.567C267.386 449.545 283.774 454.268 297.173 461.576C322.034 475.137 317.523 510.667 334.781 530.912C349.473 548.147 370.148 555.118 391.945 555.118C395.744 555.118 400.567 554.352 404.322 555.186C408.193 556.047 412.322 563.525 412.322 556.349" stroke="#FEF8E3" stroke-width="6" stroke-linecap="round" stroke-linejoin="round"/>
</svg>
