<svg width="414" height="409" viewBox="0 0 414 409" fill="none" xmlns="http://www.w3.org/2000/svg">
<ellipse cx="98.5" cy="98" rx="127.5" ry="121" fill="#FEF8E3"/>
<ellipse cx="377" cy="311.5" rx="95" ry="92.5" fill="#FFCF1F"/>
<path d="M40.4822 6.38296C29.255 4.19229 16.1237 8.21771 8.74883 17.6271C-0.201316 29.0462 7.80616 45.4148 19.9929 49.6103C37.7022 55.7069 63.1186 53.9233 73.9646 36.4922C79.3307 27.8681 81.8084 16.6764 73.1525 9.31892C56.8137 -4.56909 27.7108 5.41448 12.3095 16.0029C-12.1631 32.8278 -27.5738 59.2494 -19.6113 89.6518C-9.12539 129.689 39.376 150.377 76.8381 134.816C97.8443 126.09 115.472 110.001 135.932 99.7715C161.31 87.0826 196.385 84.0047 221.012 99.709C242.334 113.306 251.871 136.921 251.871 161.489C251.871 169.599 247.515 177.064 241.439 182.416C225.908 196.098 206.338 204.322 186.156 207.902C170.105 210.75 150.186 209.945 135.058 216.648C129.308 219.195 128.618 223.854 128.249 229.578C126.637 254.552 142.441 272.668 162.043 286.486C184.527 302.335 217.302 297.577 242.251 291.109C267.258 284.625 286.087 268.428 303.157 249.693C315.047 236.643 334.411 216.402 326.707 197.033C322.713 186.99 313.814 176.533 302.407 175.107C293.782 174.029 283.789 187.354 281.356 194.409C279.351 200.223 280.04 206.765 279.107 212.775C277.961 220.161 277.733 227.309 277.733 234.763C277.733 242.885 277.434 251.072 277.795 259.188C278.483 274.657 284.595 289.897 290.226 304.102C295.187 316.614 302.256 328.07 309.966 339.083C317.05 349.203 323.821 360 333.453 367.881C342.735 375.475 361.139 386.073 373.495 382.248C395.645 375.392 411.289 356.15 422.282 336.835C427.433 327.783 435.053 317.408 436.025 306.725C437.222 293.55 437.082 283.536 430.153 272.306C424.613 263.328 421.383 254.929 413.224 248.006C406.827 242.578 404.976 236.824 395.796 235.513C380.132 233.275 363.642 233.184 351.569 245.258C336.614 260.213 334.218 290.736 336.452 310.099C337.818 321.936 344.315 333.377 350.569 343.206C358.606 355.835 367.611 369.903 379.679 379C394.286 390.011 413.078 399.45 430.528 404.612C442.983 408.296 458.759 406.391 471.256 404.549C494.561 401.114 514.082 388.937 534.098 377.438" stroke="#CE0000" stroke-width="3" stroke-linecap="round" stroke-linejoin="round"/>
</svg>
