<svg width="414" height="618" viewBox="0 0 414 618" fill="none" xmlns="http://www.w3.org/2000/svg">
<g clip-path="url(#clip0)">
<path d="M12.7359 88.3613C17.9211 54.5776 46.1546 28 80.3339 28H384.313C410.919 28 434.727 44.2762 443.149 69.5151C481.649 184.899 572.842 508.094 428.447 617C251.445 750.5 236.45 511 19.4478 617C-179.84 714.347 -24.2275 329.192 12.7359 88.3613Z" fill="#FFCF1F"/>
<path d="M-11.0732 -105.915C-3.12543 -131.729 20.938 -148.5 47.9482 -148.5H366.312C396.06 -148.5 421.89 -128.259 428.366 -99.224C464.629 63.3367 566.679 567.805 416.999 487.5C238.998 392 161.499 694 2.99908 487.5C-125.18 320.503 -46.0419 7.66491 -11.0732 -105.915Z" fill="#FEF8E3"/>
</g>
<defs>
<clipPath id="clip0">
<rect width="414" height="506" fill="white" transform="translate(0 56)"/>
</clipPath>
</defs>
</svg>
