<svg width="414" height="618" viewBox="0 0 414 618" fill="none" xmlns="http://www.w3.org/2000/svg">
<path d="M14.7866 46.8613C19.9718 13.0776 48.2053 -13.5 82.3846 -13.5H386.364C412.97 -13.5 436.778 2.77621 445.2 28.0151C483.7 143.399 574.893 466.594 430.498 575.5C253.496 709 238.501 469.5 21.4985 575.5C-177.789 672.847 -22.1768 287.692 14.7866 46.8613Z" fill="#FFCF1F"/>
<path d="M-11.0732 -161.915C-3.12545 -187.729 20.938 -204.5 47.9482 -204.5H366.312C396.06 -204.5 421.89 -184.259 428.366 -155.224C464.629 7.33669 566.679 511.805 416.999 431.5C238.998 336 161.499 638 2.99906 431.5C-125.18 264.503 -46.0419 -48.3351 -11.0732 -161.915Z" fill="#FEF8E3"/>
</svg>
